<svg width="67" height="22" viewBox="0 0 67 22" fill="none" xmlns="http://www.w3.org/2000/svg">
<g id="Group">
<path id="Vector" d="M66.1248 4.61992C66.0804 4.80454 66.0376 4.9899 65.9903 5.17378C65.5468 6.89886 64.1292 7.94085 62.2733 7.89359C61.566 7.87587 60.8742 7.77027 60.1942 7.54725C59.9651 7.47192 59.6769 7.57309 59.416 7.59599C59.0708 7.62626 58.7249 7.6846 58.3798 7.68534C55.1329 7.69199 51.886 7.68977 48.6399 7.68977H48.2852C48.3665 7.15438 48.4426 6.64999 48.5165 6.1626H52.5941C52.569 6.19362 52.5889 6.18032 52.5889 6.16703C52.5719 5.17009 52.5616 4.17314 52.5283 3.17619C52.5224 2.99084 52.4426 2.80179 52.3694 2.62529C52.1078 1.99168 51.6296 1.66675 50.94 1.66379C50.399 1.66158 49.858 1.66379 49.3169 1.66305C49.2194 1.66305 49.1218 1.66305 48.9932 1.66305C49.0649 1.16089 49.1255 0.700077 49.2024 0.241482C49.212 0.186096 49.3059 0.10191 49.3591 0.103387C50.2748 0.120372 51.2016 0.0672015 52.1026 0.19422C53.4522 0.384747 54.4263 1.46292 54.6614 2.89926C54.7478 3.42949 54.7545 3.97375 54.773 4.51284C54.7907 5.03347 54.7767 5.55483 54.7767 6.0954C54.8742 6.10278 54.9533 6.11386 55.0324 6.11386C56.2061 6.11534 57.3805 6.10721 58.5542 6.12051C58.7959 6.12346 58.8883 6.01712 58.9127 5.81182C58.9297 5.66708 58.9319 5.51939 58.9326 5.37317C58.9341 4.39247 58.9326 3.41177 58.9341 2.43181C58.9363 1.29086 59.4027 0.629922 60.4951 0.290222C60.9274 0.155819 61.3842 0.0945252 61.8306 0C62.1425 0 62.4544 0 62.7663 0C62.8365 0.018462 62.9053 0.0443087 62.9762 0.0539089C64.4707 0.254036 65.5623 1.20667 65.96 2.66591C66.022 2.89336 66.0701 3.12524 66.124 3.35491V4.61992H66.1248ZM60.9474 2.11648C60.9703 2.40375 61.005 2.64597 61.0065 2.88893C61.0132 3.8135 61.0176 4.73808 61.0028 5.66265C60.9991 5.8901 61.0804 5.97355 61.2889 5.98758C61.654 6.01195 62.0183 6.05995 62.3835 6.06734C63.1743 6.08284 63.6917 5.70548 63.9053 4.94706C64.1004 4.25511 64.0959 3.55208 63.9119 2.85791C63.8018 2.44289 63.5756 2.08177 63.1514 1.94441C62.3857 1.69702 61.6421 1.83881 60.9466 2.11648H60.9474Z" fill="white"/>
<path id="Vector_2" d="M47.5147 0.133717C47.4356 0.648436 47.3602 1.14469 47.2782 1.67787C47.1636 1.67787 47.0564 1.67787 46.9493 1.67787C45.5731 1.67787 44.1976 1.67714 42.8214 1.67935C42.6292 1.67935 42.4349 1.68231 42.2449 1.70594C41.6825 1.77609 41.3846 2.12687 41.4105 2.67187C41.4363 3.21096 41.7726 3.56838 42.3166 3.58315C43.0136 3.60235 43.7113 3.58241 44.4075 3.59718C44.7172 3.60383 45.0328 3.62746 45.3343 3.6917C46.4881 3.93836 47.2205 4.86072 47.2035 6.0408C47.1991 6.34063 47.168 6.64709 47.0956 6.93732C46.8613 7.88109 46.1703 8.33599 45.276 8.51175C44.8207 8.60111 44.3484 8.64542 43.8842 8.64689C40.8295 8.65354 37.7748 8.65945 34.7202 8.62991C32.8155 8.61145 31.5546 7.37523 31.4467 5.47808C31.3935 4.54539 31.3499 3.60899 31.61 2.69328C32.0402 1.1794 33.2235 0.257781 34.8007 0.229719C35.7623 0.212734 36.7246 0.226765 37.7076 0.226765C37.63 0.7533 37.5561 1.25842 37.477 1.79751C37.1067 1.79751 36.7423 1.79677 36.3779 1.79751C36.0202 1.79825 35.6618 1.79086 35.3048 1.80563C34.6581 1.83222 34.1754 2.14238 33.9308 2.73611C33.7941 3.06843 33.7002 3.43988 33.6884 3.79657C33.6669 4.46194 33.6588 5.13838 33.7586 5.79268C33.8739 6.54961 34.3942 6.99861 35.1555 7.04439C36.0513 7.0983 36.9515 7.08427 37.8502 7.08723C39.8221 7.09387 41.7948 7.09461 43.7667 7.09461C43.9131 7.09461 44.0616 7.09166 44.2043 7.06433C44.8007 6.95282 45.1422 6.51269 45.0934 5.93372C45.0446 5.35993 44.6337 4.98847 44.0202 4.97813C43.1584 4.96336 42.2952 4.98256 41.4349 4.93826C40.4142 4.88509 39.6743 4.31129 39.4083 3.43767C39.1 2.42595 39.3816 1.36033 40.1185 0.786532C40.7061 0.328675 41.4023 0.139625 42.1237 0.126332C43.8842 0.0945778 45.6455 0.109347 47.4068 0.106393C47.4326 0.106393 47.4592 0.118948 47.5147 0.132979V0.133717Z" fill="white"/>
<g id="Group_2">
<path id="Vector_3" d="M66.1255 22C65.4411 21.8759 64.7582 21.7408 64.0708 21.6359C63.8801 21.6071 63.6725 21.6544 63.4773 21.6906C62.6436 21.8449 61.8099 21.9439 60.9718 21.7231C59.9762 21.4602 59.4108 20.7608 59.3768 19.7476C59.3413 18.6975 59.8269 17.945 60.8424 17.6614C61.4433 17.4938 62.0827 17.451 62.7079 17.3926C63.1336 17.3535 63.566 17.3853 63.9903 17.3853C64.1957 16.5131 63.7944 15.9696 62.9267 15.9541C61.9718 15.9371 61.0553 16.152 60.158 16.4607C60.073 16.4902 59.9866 16.5146 59.8742 16.5493C59.7974 16.0279 59.7227 15.525 59.6458 15.0037C61.1292 14.5288 62.603 14.1005 64.1743 14.4144C65.3206 14.6433 65.9289 15.3027 66.076 16.4533C66.0849 16.5249 66.1085 16.5943 66.1248 16.6645V21.9993L66.1255 22ZM63.2327 18.6466C63.2305 18.6355 63.2283 18.6244 63.226 18.6126C62.8306 18.668 62.4241 18.6835 62.0427 18.7898C61.6481 18.9006 61.464 19.2713 61.5002 19.7019C61.5313 20.0704 61.7501 20.3694 62.1484 20.4064C62.5579 20.4448 62.9851 20.4108 63.3916 20.3384C64.073 20.2173 64.073 20.1937 64.0664 19.4958C64.0642 19.2255 64.1344 18.8689 63.9932 18.7123C63.8691 18.5742 63.4958 18.6599 63.2327 18.6473V18.6466Z" fill="white"/>
<path id="Vector_4" d="M42.0477 21.7593H39.8888V21.4218C39.8888 20.0468 39.8888 18.6717 39.888 17.2974C39.888 17.1512 39.888 17.0035 39.8703 16.858C39.8208 16.4423 39.5503 16.1594 39.1445 16.1151C38.6508 16.0619 38.1785 16.1454 37.7868 16.3477C37.8008 16.9533 37.823 17.5241 37.826 18.0957C37.8319 19.2138 37.8274 20.3326 37.8274 21.4506V21.76H35.6737V21.444C35.6737 20.0689 35.6611 18.6939 35.6781 17.3196C35.6914 16.2488 35.211 15.9711 34.2081 16.1469C33.6064 16.2525 33.6094 16.268 33.6094 16.8691C33.6094 18.3815 33.6094 19.8939 33.6094 21.4063V21.7504H31.418V21.4189C31.418 19.6406 31.418 17.8624 31.418 16.0841C31.418 15.1824 31.6478 14.8782 32.5222 14.6389C33.6035 14.3435 34.6996 14.1988 35.8119 14.4203C36.112 14.4801 36.4039 14.6094 36.6789 14.7482C36.826 14.822 36.9294 14.8375 37.0795 14.7748C38.1393 14.3287 39.2347 14.1921 40.3603 14.4668C41.3485 14.7083 41.9671 15.4025 42.0033 16.4149C42.0543 17.8247 42.0366 19.2367 42.0477 20.6479C42.0506 21.0127 42.0477 21.3775 42.0477 21.76V21.7593Z" fill="white"/>
<path id="Vector_5" d="M55.9784 14.6344C55.9784 14.5074 55.9784 14.4107 55.9784 14.3132C55.9784 13.4152 55.9806 12.5172 55.9762 11.6199C55.9762 11.4767 55.9947 11.377 56.1646 11.3497C56.815 11.2455 57.464 11.1325 58.1543 11.0159V11.3253C58.1543 14.2755 58.1543 17.2257 58.1543 20.1752C58.1543 21.02 57.9688 21.2785 57.1632 21.5259C56.1129 21.8486 55.0375 21.9269 53.9547 21.7659C52.3893 21.5333 51.342 20.3554 51.2171 18.7123C51.1632 18.007 51.1853 17.3047 51.3686 16.6128C51.7367 15.2245 52.7264 14.4003 54.1609 14.3715C54.648 14.3619 55.138 14.4779 55.6258 14.5428C55.7308 14.5569 55.8328 14.596 55.9784 14.6351V14.6344ZM55.9784 18.1496V17.0788C55.9784 16.4245 55.6473 16.068 54.985 16.0095C54.2171 15.9415 53.6576 16.3137 53.4625 17.0559C53.2822 17.7405 53.2836 18.4346 53.4669 19.1185C53.6709 19.8783 54.192 20.2616 54.9784 20.2468C55.2149 20.2424 55.4499 20.19 55.6864 20.1723C55.9097 20.1553 55.9924 20.0622 55.9843 19.8252C55.9643 19.2676 55.9776 18.7086 55.9776 18.1503L55.9784 18.1496Z" fill="white"/>
<path id="Vector_6" d="M47.8983 17.3874C47.9693 16.2871 47.63 15.9245 46.5797 15.954C45.7113 15.9784 44.8739 16.1734 44.0557 16.4562C43.9707 16.4857 43.8835 16.5116 43.7579 16.5515C43.6877 16.0596 43.616 15.5841 43.5576 15.1063C43.5524 15.0612 43.6204 14.977 43.6707 14.9608C44.8517 14.5819 46.0432 14.2496 47.3033 14.3154C47.4955 14.325 47.6884 14.3449 47.8776 14.3774C49.2959 14.6226 49.9678 15.4002 49.9789 16.8483C49.9922 18.4981 49.9826 20.1486 49.9818 21.7984C49.9818 21.853 49.9759 21.9069 49.9715 21.9926C49.7298 21.9512 49.4962 21.9276 49.2708 21.8707C48.3898 21.647 47.5169 21.6019 46.6152 21.7954C45.9685 21.9335 45.2996 21.887 44.6596 21.6662C43.7667 21.3582 43.2841 20.6943 43.2553 19.7417C43.2265 18.7699 43.65 18.0875 44.5191 17.7212C45.1119 17.4716 45.7416 17.4066 46.3765 17.3919C46.8783 17.38 47.3809 17.3896 47.8983 17.3896V17.3874ZM47.9426 18.7012C47.3144 18.7012 46.7357 18.6635 46.1644 18.7123C45.6433 18.7566 45.3455 19.1627 45.3706 19.6619C45.3942 20.1242 45.729 20.4743 46.2538 20.4484C46.7786 20.4233 47.2982 20.2911 47.8177 20.1951C47.8665 20.1863 47.9353 20.0999 47.9367 20.0482C47.9463 19.6006 47.9419 19.1531 47.9419 18.7012H47.9426Z" fill="white"/>
</g>
<path id="Vector_7" d="M28.0334 0H0.125V9.23984H28.0334V0Z" fill="#289BD7"/>
<path id="Vector_8" d="M28.0334 12.5955H0.125V21.8353H28.0334V12.5955Z" fill="#85B840"/>
</g>
</svg>
