<svg viewBox="0 0 17 32" fill="none" xmlns="http://www.w3.org/2000/svg">
    <!-- First SVG Path (Red) -->
    <path d="M0.8125 0.6875C9.26936 0.6875 16.125 7.54314 16.125 16C16.125 24.4569 9.26936 31.3125 0.8125 31.3125C-7.64436 31.3125 -14.5 24.4569 -14.5 16C-14.5 7.54314 -7.64436 0.6875 0.8125 0.6875Z" fill="#F93232" transform="translate(s, 0)"/>
    
    <!-- Second SVG Path (Yellow) -->
    <path d="M15.8125 0.6875C12.3733 0.6875 9.20975 1.83594 6.65563 3.75H6.625V3.77144C6.01862 4.22775 5.46125 4.74225 4.92991 5.28125H8.32009C8.79172 5.76053 9.22659 6.2735 9.62931 6.8125H3.60844C3.23739 7.30183 2.89631 7.81318 2.58709 8.34375H10.6476C10.9355 8.83988 11.2065 9.34519 11.4408 9.875H1.80769C1.58764 10.3746 1.39493 10.8857 1.23041 11.4062H12.0165C12.1758 11.9054 12.3013 12.4184 12.4116 12.9375H0.830749C0.728156 13.4397 0.642406 13.9481 0.590344 14.4688H12.6581C12.7178 14.971 12.75 15.4809 12.75 16H0.5C0.5 16.5191 0.541344 17.0259 0.591876 17.5312H12.6612C12.603 18.0503 12.5188 18.5602 12.4131 19.0625H0.832281C0.937937 19.5847 1.07422 20.093 1.23194 20.5938H12.0181C11.8535 21.1143 11.6608 21.6254 11.4408 22.125H1.80769C2.03891 22.6518 2.29922 23.1632 2.58709 23.6562H10.6476C10.3379 24.1872 9.99575 24.6986 9.62319 25.1875H3.60844C4.01575 25.7265 4.45522 26.2395 4.92838 26.7188H8.32009C7.793 27.2631 7.22643 27.7677 6.625 28.2286C9.26953 30.2304 12.4957 31.3133 15.8125 31.3125C24.2696 31.3125 31.125 24.4556 31.125 16C31.125 7.54444 24.2696 0.6875 15.8125 0.6875Z" fill="#FED049" transform="translate(0, 0)"/>
</svg>
