<svg width="59" height="20" viewBox="0 0 59 20" fill="none" xmlns="http://www.w3.org/2000/svg">
<path id="Vector" d="M22.8972 0.963089L15.305 19.0797H10.3496L6.61609 4.62309C6.38625 3.73157 6.18982 3.40713 5.50061 3.02855C4.37165 2.41819 2.51463 1.84566 0.875 1.48905L0.989754 0.963202H8.96237C9.97919 0.963202 10.8934 1.64142 11.1232 2.81059L13.0974 13.2961L17.9734 0.963202L22.8972 0.963089ZM42.3075 13.1621C42.3295 8.38324 35.6949 8.12314 35.7426 5.98519C35.7555 5.33257 36.3741 4.64201 37.7287 4.46767C38.4013 4.37818 40.2525 4.31259 42.3506 5.27582L43.1729 1.43581C42.044 1.02607 40.593 0.633667 38.7896 0.633667C34.1576 0.633667 30.8968 3.09742 30.8693 6.62262C30.8389 9.22945 33.1957 10.6842 34.9734 11.5524C36.7989 12.4407 37.4092 13.0079 37.4028 13.8047C37.3909 15.0206 35.9463 15.552 34.5989 15.5759C32.2421 15.6126 30.8752 14.9391 29.7835 14.4306L28.935 18.4026C30.0285 18.9047 32.0531 19.3406 34.1483 19.3663C39.0714 19.3661 42.292 16.9286 42.3075 13.1621ZM54.5395 19.0798H58.875L55.092 0.963202H51.0896C50.1903 0.963202 49.4321 1.48769 49.0943 2.2912L42.0661 19.0798H46.9853L47.9618 16.3742H53.975L54.5395 19.0798ZM49.31 12.661L51.7779 5.85842L53.1977 12.661H49.31ZM29.5946 0.963089L25.717 19.0797H21.0295L24.9081 0.963089H29.5946Z" fill="#1A2ADF"/>
</svg>
