<svg width="36" height="36" viewBox="0 0 36 36" fill="none" xmlns="http://www.w3.org/2000/svg">
<g id="Facebook (icon &#226;&#128;&#148; Colour)">
<path id="Vector" fill-rule="evenodd" clip-rule="evenodd" d="M36 18C36 8.05965 27.9403 0 18 0C8.05965 0 0 8.05965 0 18C0 26.9835 6.58142 34.4305 15.1878 35.7825V23.2044H10.6162V18H15.1878V14.0334C15.1878 9.52262 17.876 7.02933 21.9868 7.02933C23.9561 7.02933 26.0165 7.38115 26.0165 7.38115V11.811H23.746C21.5109 11.811 20.8122 13.1981 20.8122 14.6232V17.9998H25.8037L25.0065 23.2042H20.8121V35.7822C29.4185 34.433 35.9997 26.986 35.9997 17.9998L36 18Z" fill="#1977F3"/>
<path id="Vector_2" fill-rule="evenodd" clip-rule="evenodd" d="M25.0073 23.2042L25.8048 17.9998H20.8132V14.6232C20.8132 13.2006 21.5093 11.811 23.7469 11.811H26.0176V7.38115C26.0176 7.38115 23.9572 7.0293 21.9877 7.0293C17.877 7.0293 15.1888 9.52015 15.1888 14.0334V18H10.6172V23.2044H15.1888V35.7825C16.105 35.9265 17.0441 36 18.001 36C18.9578 36 19.8969 35.924 20.8132 35.7825V23.2044H25.0076L25.0073 23.2042Z" fill="#FEFEFE"/>
</g>
</svg>
