<svg width="36" height="36" viewBox="0 0 36 36" fill="none" xmlns="http://www.w3.org/2000/svg">
<g id="Clip path group">
<mask id="mask0_388_3787" style="mask-type:luminance" maskUnits="userSpaceOnUse" x="0" y="0" width="36" height="36">
<g id="clip0">
<path id="Vector" d="M35.2858 0H0V36H35.2858V0Z" fill="white"/>
</g>
</mask>
<g mask="url(#mask0_388_3787)">
<g id="Group">
<path id="Vector_2" d="M35.2851 18.4133C35.2851 17.1897 35.1859 15.9595 34.9741 14.7558H17.9961V21.6873H27.7186C27.3151 23.9228 26.0189 25.9005 24.1206 27.157V31.6545H29.9211C33.3274 28.5195 35.2851 23.8897 35.2851 18.4133Z" fill="#4285F4"/>
<path id="Vector_3" d="M17.9954 36C22.8501 36 26.9442 34.406 29.927 31.6545L24.1266 27.157C22.5128 28.255 20.4294 28.8768 18.002 28.8768C13.3061 28.8768 9.32446 25.7085 7.89584 21.4492H1.91016V26.0855C4.96584 32.164 11.1896 36 17.9954 36Z" fill="#34A853"/>
<path id="Vector_4" d="M7.8899 21.4492C7.1359 19.2137 7.1359 16.793 7.8899 14.5574V9.92102H1.91085C-0.642158 15.0072 -0.642158 20.9995 1.91085 26.0855L7.8899 21.4492Z" fill="#FBBC04"/>
<path id="Vector_5" d="M17.9954 7.12327C20.5616 7.08359 23.0419 8.04922 24.9004 9.82179L30.0395 4.68269C26.7855 1.62704 22.4665 -0.0529196 17.9954 -7.70867e-06C11.1896 -7.70867e-06 4.96584 3.83612 1.91016 9.92099L7.88921 14.5574C9.31121 10.2914 13.2995 7.12327 17.9954 7.12327Z" fill="#EA4335"/>
</g>
</g>
</g>
</svg>
