<svg width="76" height="77" viewBox="0 0 76 77" fill="none" xmlns="http://www.w3.org/2000/svg">
<g id="linkedin 3" filter="url(#filter0_d_6078_17060)">
<path id="Vector" d="M50 16.1304H25.9937C24.8937 16.1304 24 17.0366 24 18.1491V42.1116C24 43.2241 24.8937 44.1304 25.9937 44.1304H50C51.1 44.1304 52 43.2241 52 42.1116V18.1491C52 17.0366 51.1 16.1304 50 16.1304ZM32.4625 40.1304H28.3125V26.7679H32.4688V40.1304H32.4625ZM30.3875 24.9429C29.0562 24.9429 27.9813 23.8616 27.9813 22.5366C27.9813 21.2116 29.0562 20.1304 30.3875 20.1304C31.7125 20.1304 32.7937 21.2116 32.7937 22.5366C32.7937 23.8679 31.7188 24.9429 30.3875 24.9429ZM48.0187 40.1304H43.8687V33.6304C43.8687 32.0804 43.8375 30.0866 41.7125 30.0866C39.55 30.0866 39.2188 31.7741 39.2188 33.5179V40.1304H35.0688V26.7679H39.05V28.5929H39.1062C39.6625 27.5429 41.0188 26.4366 43.0375 26.4366C47.2375 26.4366 48.0187 29.2054 48.0187 32.8054V40.1304Z" fill="#FCFCFC"/>
</g>
<defs>
<filter id="filter0_d_6078_17060" x="0" y="-1.86963" width="76" height="80" filterUnits="userSpaceOnUse" color-interpolation-filters="sRGB">
<feFlood flood-opacity="0" result="BackgroundImageFix"/>
<feColorMatrix in="SourceAlpha" type="matrix" values="0 0 0 0 0 0 0 0 0 0 0 0 0 0 0 0 0 0 127 0" result="hardAlpha"/>
<feOffset dy="8"/>
<feGaussianBlur stdDeviation="12"/>
<feColorMatrix type="matrix" values="0 0 0 0 0 0 0 0 0 0 0 0 0 0 0 0 0 0 0.1 0"/>
<feBlend mode="normal" in2="BackgroundImageFix" result="effect1_dropShadow_6078_17060"/>
<feBlend mode="normal" in="SourceGraphic" in2="effect1_dropShadow_6078_17060" result="shape"/>
</filter>
</defs>
</svg>
