<svg width="77" height="77" viewBox="0 0 77 77" fill="none" xmlns="http://www.w3.org/2000/svg">
<g id="square-instagram 3" clip-path="url(#clip0_6078_17063)" filter="url(#filter0_d_6078_17063)">
<path id="Vector" d="M38.5 26.7966C37.8172 26.7969 37.1497 26.9926 36.5821 27.3591C36.0144 27.7255 35.5721 28.2463 35.3109 28.8555C35.0498 29.4647 34.9816 30.1349 35.115 30.7815C35.2484 31.4281 35.5773 32.022 36.0602 32.4881C36.5432 32.9542 37.1584 33.2716 37.8282 33.4002C38.4979 33.5287 39.1921 33.4626 39.8229 33.2102C40.4538 32.9579 40.993 32.5306 41.3723 31.9824C41.7516 31.4342 41.9541 30.7897 41.9541 30.1304C41.9534 29.2462 41.5892 28.3984 40.9416 27.7733C40.2939 27.1483 39.4158 26.797 38.5 26.7966ZM46.5727 24.2341C46.397 23.804 46.1315 23.4134 45.7929 23.0864C45.4543 22.7595 45.0497 22.5032 44.6042 22.3335C43.2449 21.8154 40.0083 21.9316 38.5 21.9316C36.9917 21.9316 33.7584 21.811 32.3951 22.3335C31.9497 22.5032 31.5451 22.7595 31.2064 23.0864C30.8678 23.4134 30.6024 23.804 30.4266 24.2341C29.8906 25.5466 30.0104 28.6747 30.0104 30.1297C30.0104 31.5847 29.8906 34.7091 30.4292 36.026C30.605 36.4561 30.8704 36.8467 31.209 37.1737C31.5477 37.5006 31.9522 37.7569 32.3977 37.9266C33.7571 38.4447 36.9937 38.3285 38.5026 38.3285C40.0115 38.3285 43.2436 38.4491 44.6068 37.9266C45.0523 37.7569 45.4569 37.5006 45.7955 37.1737C46.1341 36.8467 46.3996 36.4561 46.5753 36.026C47.1158 34.7135 46.9916 31.5854 46.9916 30.1304C46.9916 28.6754 47.1158 25.5516 46.5753 24.2347L46.5727 24.2341ZM38.5 35.2554C37.4502 35.2554 36.4239 34.9548 35.551 34.3917C34.6781 33.8285 33.9978 33.0281 33.596 32.0916C33.1943 31.1552 33.0891 30.1247 33.294 29.1305C33.4988 28.1364 34.0043 27.2232 34.7467 26.5064C35.489 25.7897 36.4348 25.3016 37.4645 25.1038C38.4941 24.9061 39.5614 25.0076 40.5313 25.3955C41.5012 25.7834 42.3302 26.4403 42.9135 27.2831C43.4967 28.1259 43.808 29.1167 43.808 30.1304C43.8089 30.8036 43.6722 31.4704 43.4057 32.0926C43.1393 32.7148 42.7483 33.2801 42.2552 33.7561C41.7622 34.2322 41.1767 34.6097 40.5323 34.8669C39.8879 35.1242 39.1973 35.2562 38.5 35.2554ZM44.0268 25.9866C43.7818 25.9867 43.5422 25.9167 43.3383 25.7853C43.1345 25.6539 42.9756 25.4672 42.8817 25.2486C42.7878 25.03 42.7632 24.7895 42.8109 24.5574C42.8587 24.3253 42.9766 24.1121 43.1499 23.9447C43.3231 23.7774 43.5439 23.6634 43.7842 23.6172C44.0246 23.5709 44.2737 23.5946 44.5002 23.6851C44.7266 23.7756 44.9201 23.929 45.0563 24.1257C45.1925 24.3224 45.2652 24.5537 45.2652 24.7904C45.2658 24.9475 45.2344 25.1032 45.1726 25.2486C45.1108 25.394 45.0199 25.5261 44.9051 25.6375C44.7903 25.7489 44.6538 25.8373 44.5036 25.8976C44.3533 25.9579 44.1922 25.989 44.0294 25.9891L44.0268 25.9866ZM49.8929 16.1304H27.1071C26.2831 16.1304 25.4928 16.4464 24.9101 17.0091C24.3274 17.5717 24 18.3347 24 19.1304V41.1304C24 41.926 24.3274 42.6891 24.9101 43.2517C25.4928 43.8143 26.2831 44.1304 27.1071 44.1304H49.8929C50.7169 44.1304 51.5072 43.8143 52.0899 43.2517C52.6726 42.6891 53 41.926 53 41.1304V19.1304C53 18.3347 52.6726 17.5717 52.0899 17.0091C51.5072 16.4464 50.7169 16.1304 49.8929 16.1304ZM48.7846 34.2554C48.7011 35.8572 48.3225 37.2766 47.1113 38.4429C45.9002 39.6091 44.4314 39.9822 42.7743 40.0585C41.0647 40.1516 35.9392 40.1516 34.2296 40.0585C32.5705 39.9779 31.1056 39.6116 29.8926 38.4429C28.6795 37.2741 28.2982 35.8541 28.2192 34.2554C28.1228 32.6041 28.1228 27.6547 28.2192 26.0054C28.3027 24.4035 28.6769 22.9841 29.8926 21.8179C31.1082 20.6516 32.577 20.2829 34.2296 20.2066C35.9392 20.1135 41.0647 20.1135 42.7743 20.2066C44.4333 20.2872 45.9028 20.6535 47.1113 21.8222C48.3199 22.991 48.7057 24.411 48.7846 26.0129C48.8811 27.6579 48.8811 32.6029 48.7846 34.2554Z" fill="#FCFCFC"/>
</g>
<defs>
<filter id="filter0_d_6078_17063" x="0" y="-1.86963" width="77" height="80" filterUnits="userSpaceOnUse" color-interpolation-filters="sRGB">
<feFlood flood-opacity="0" result="BackgroundImageFix"/>
<feColorMatrix in="SourceAlpha" type="matrix" values="0 0 0 0 0 0 0 0 0 0 0 0 0 0 0 0 0 0 127 0" result="hardAlpha"/>
<feOffset dy="8"/>
<feGaussianBlur stdDeviation="12"/>
<feColorMatrix type="matrix" values="0 0 0 0 0 0 0 0 0 0 0 0 0 0 0 0 0 0 0.1 0"/>
<feBlend mode="normal" in2="BackgroundImageFix" result="effect1_dropShadow_6078_17063"/>
<feBlend mode="normal" in="SourceGraphic" in2="effect1_dropShadow_6078_17063" result="shape"/>
</filter>
<clipPath id="clip0_6078_17063">
<rect width="29" height="32" fill="white" transform="translate(24 14.1304)"/>
</clipPath>
</defs>
</svg>
