<svg width="77" height="77" viewBox="0 0 77 77" fill="none" xmlns="http://www.w3.org/2000/svg">
<g id="square-twitter 3" filter="url(#filter0_d_6078_17062)">
<path id="Vector" d="M49.8929 16.1304H27.1071C25.3917 16.1304 24 17.4741 24 19.1304V41.1304C24 42.7866 25.3917 44.1304 27.1071 44.1304H49.8929C51.6083 44.1304 53 42.7866 53 41.1304V19.1304C53 17.4741 51.6083 16.1304 49.8929 16.1304ZM46.7275 26.0554C46.7404 26.2304 46.7404 26.4116 46.7404 26.5866C46.7404 32.0054 42.4681 38.2491 34.6614 38.2491C32.2533 38.2491 30.0201 37.5741 28.1429 36.4116C28.4859 36.4491 28.8161 36.4616 29.1656 36.4616C31.1529 36.4616 32.9783 35.8116 34.4348 34.7116C32.5705 34.6741 31.004 33.4929 30.4667 31.8679C31.1205 31.9616 31.7096 31.9616 32.3828 31.7929C30.4408 31.4116 28.9844 29.7616 28.9844 27.7679V27.7179C29.5475 28.0241 30.2078 28.2116 30.9004 28.2366C30.3181 27.8626 29.8408 27.3553 29.511 26.7598C29.1811 26.1644 29.0091 25.4994 29.0103 24.8241C29.0103 24.0616 29.2174 23.3616 29.5864 22.7554C31.6772 25.2429 34.8167 26.8679 38.3382 27.0429C37.7362 24.2616 39.8917 22.0054 42.481 22.0054C43.7045 22.0054 44.8049 22.4991 45.5817 23.2991C46.5397 23.1241 47.4589 22.7804 48.2746 22.3116C47.9574 23.2616 47.2906 24.0616 46.4103 24.5679C47.2647 24.4804 48.0933 24.2491 48.8571 23.9304C48.281 24.7491 47.556 25.4741 46.7275 26.0554Z" fill="#FCFCFC"/>
</g>
<defs>
<filter id="filter0_d_6078_17062" x="0" y="-1.86963" width="77" height="80" filterUnits="userSpaceOnUse" color-interpolation-filters="sRGB">
<feFlood flood-opacity="0" result="BackgroundImageFix"/>
<feColorMatrix in="SourceAlpha" type="matrix" values="0 0 0 0 0 0 0 0 0 0 0 0 0 0 0 0 0 0 127 0" result="hardAlpha"/>
<feOffset dy="8"/>
<feGaussianBlur stdDeviation="12"/>
<feColorMatrix type="matrix" values="0 0 0 0 0 0 0 0 0 0 0 0 0 0 0 0 0 0 0.1 0"/>
<feBlend mode="normal" in2="BackgroundImageFix" result="effect1_dropShadow_6078_17062"/>
<feBlend mode="normal" in="SourceGraphic" in2="effect1_dropShadow_6078_17062" result="shape"/>
</filter>
</defs>
</svg>
