<svg width="76" height="77" viewBox="0 0 76 77" fill="none" xmlns="http://www.w3.org/2000/svg">
<g id="square-facebook 3" clip-path="url(#clip0_6078_17061)" filter="url(#filter0_d_6078_17061)">
<path id="Vector" d="M49 16.1304H27C26.2044 16.1304 25.4413 16.4464 24.8787 17.0091C24.3161 17.5717 24 18.3347 24 19.1304V41.1304C24 41.926 24.3161 42.6891 24.8787 43.2517C25.4413 43.8143 26.2044 44.1304 27 44.1304H35.5781V34.611H31.6406V30.1304H35.5781V26.7154C35.5781 22.831 37.8906 20.6854 41.4325 20.6854C43.1287 20.6854 44.9025 20.9879 44.9025 20.9879V24.8004H42.9481C41.0225 24.8004 40.4219 25.9954 40.4219 27.221V30.1304H44.7206L44.0331 34.611H40.4219V44.1304H49C49.7956 44.1304 50.5587 43.8143 51.1213 43.2517C51.6839 42.6891 52 41.926 52 41.1304V19.1304C52 18.3347 51.6839 17.5717 51.1213 17.0091C50.5587 16.4464 49.7956 16.1304 49 16.1304Z" fill="#FCFCFC"/>
</g>
<defs>
<filter id="filter0_d_6078_17061" x="0" y="-1.86963" width="76" height="80" filterUnits="userSpaceOnUse" color-interpolation-filters="sRGB">
<feFlood flood-opacity="0" result="BackgroundImageFix"/>
<feColorMatrix in="SourceAlpha" type="matrix" values="0 0 0 0 0 0 0 0 0 0 0 0 0 0 0 0 0 0 127 0" result="hardAlpha"/>
<feOffset dy="8"/>
<feGaussianBlur stdDeviation="12"/>
<feColorMatrix type="matrix" values="0 0 0 0 0 0 0 0 0 0 0 0 0 0 0 0 0 0 0.1 0"/>
<feBlend mode="normal" in2="BackgroundImageFix" result="effect1_dropShadow_6078_17061"/>
<feBlend mode="normal" in="SourceGraphic" in2="effect1_dropShadow_6078_17061" result="shape"/>
</filter>
<clipPath id="clip0_6078_17061">
<rect width="28" height="32" fill="white" transform="translate(24 14.1304)"/>
</clipPath>
</defs>
</svg>
