<svg width="76" height="77" viewBox="0 0 76 77" fill="none" xmlns="http://www.w3.org/2000/svg">
<g id="tiktok 4" clip-path="url(#clip0_6078_17064)" filter="url(#filter0_d_6078_17064)">
<path id="Exclude" fill-rule="evenodd" clip-rule="evenodd" d="M29 16.1304C26.2386 16.1304 24 18.3689 24 21.1304V39.1304C24 41.8918 26.2386 44.1304 29 44.1304H47C49.7614 44.1304 52 41.8918 52 39.1304V21.1304C52 18.3689 49.7614 16.1304 47 16.1304H29ZM42.1223 26.6527C43.5811 27.6977 45.331 28.2577 47.125 28.2534V24.6899C46.1541 24.6901 45.2047 24.4044 44.3949 23.8685C43.8256 23.5014 43.3372 23.0219 42.9595 22.4594C42.5818 21.8969 42.3227 21.2632 42.1981 20.597C42.1452 20.2986 42.1198 19.9959 42.1223 19.6929H38.5365V33.9412C38.5365 34.5826 38.334 35.2077 37.9579 35.7271C37.5818 36.2464 37.0513 36.6336 36.4423 36.8333C35.8332 37.0329 35.1767 37.0349 34.5664 36.8388C33.9562 36.6428 33.4235 36.2587 33.0443 35.7416C32.6652 35.2245 32.459 34.6006 32.4552 33.9592C32.4514 33.3178 32.6503 32.6916 33.0233 32.17C33.3964 31.6484 33.9245 31.2582 34.5324 31.0549C35.1403 30.8517 35.7968 30.8459 36.4082 31.0384V27.3725C35.0721 27.1871 33.7114 27.4144 32.5079 28.0239C31.3044 28.6335 30.3156 29.5962 29.6735 30.7833C29.0315 31.9705 28.7669 33.3256 28.9151 34.6673C29.0634 36.009 29.6173 37.2735 30.503 38.2916C31.3887 39.3098 32.5638 40.033 33.8713 40.3647C35.1787 40.6963 36.5562 40.6206 37.8195 40.1476C39.0828 39.6746 40.1717 38.8269 40.9406 37.7178C41.7096 36.6087 42.1218 35.2911 42.1223 33.9412V26.6527Z" fill="#FCFCFC"/>
</g>
<defs>
<filter id="filter0_d_6078_17064" x="0" y="0.130371" width="76" height="76" filterUnits="userSpaceOnUse" color-interpolation-filters="sRGB">
<feFlood flood-opacity="0" result="BackgroundImageFix"/>
<feColorMatrix in="SourceAlpha" type="matrix" values="0 0 0 0 0 0 0 0 0 0 0 0 0 0 0 0 0 0 127 0" result="hardAlpha"/>
<feOffset dy="8"/>
<feGaussianBlur stdDeviation="12"/>
<feColorMatrix type="matrix" values="0 0 0 0 0 0 0 0 0 0 0 0 0 0 0 0 0 0 0.1 0"/>
<feBlend mode="normal" in2="BackgroundImageFix" result="effect1_dropShadow_6078_17064"/>
<feBlend mode="normal" in="SourceGraphic" in2="effect1_dropShadow_6078_17064" result="shape"/>
</filter>
<clipPath id="clip0_6078_17064">
<rect width="28" height="28" fill="white" transform="translate(24 16.1304)"/>
</clipPath>
</defs>
</svg>
