<svg width="59" height="20" viewBox="0 0 59 20" fill="none" xmlns="http://www.w3.org/2000/svg">
<path id="Vector" d="M22.8972 0.963212L15.305 19.0798H10.3496L6.61609 4.62321C6.38625 3.73169 6.18982 3.40725 5.50061 3.02867C4.37165 2.41831 2.51463 1.84578 0.875 1.48918L0.989754 0.963324H8.96237C9.97919 0.963324 10.8934 1.64154 11.1232 2.81071L13.0974 13.2963L17.9734 0.963324L22.8972 0.963212ZM42.3075 13.1622C42.3295 8.38336 35.6949 8.12327 35.7426 5.98531C35.7555 5.3327 36.3741 4.64213 37.7287 4.46779C38.4013 4.3783 40.2525 4.31271 42.3506 5.27594L43.1729 1.43593C42.044 1.02619 40.593 0.633789 38.7896 0.633789C34.1576 0.633789 30.8968 3.09754 30.8693 6.62274C30.8389 9.22957 33.1957 10.6843 34.9734 11.5525C36.7989 12.4409 37.4092 13.0081 37.4028 13.8048C37.3909 15.0207 35.9463 15.5521 34.5989 15.576C32.2421 15.6127 30.8752 14.9392 29.7835 14.4308L28.935 18.4027C30.0285 18.9048 32.0531 19.3407 34.1483 19.3664C39.0714 19.3662 42.292 16.9287 42.3075 13.1622ZM54.5395 19.0799H58.875L55.092 0.963324H51.0896C50.1903 0.963324 49.4321 1.48782 49.0943 2.29132L42.0661 19.0799H46.9853L47.9618 16.3743H53.975L54.5395 19.0799ZM49.31 12.6611L51.7779 5.85855L53.1977 12.6611H49.31ZM29.5946 0.963212L25.717 19.0798H21.0295L24.9081 0.963212H29.5946Z" fill="#1A2ADF"/>
</svg>
